<svg viewBox="0 0 10 16" fill="none" xmlns="http://www.w3.org/2000/svg">
<path d="M1.33066 0C1.4696 0 1.59252 0.053442 1.6994 0.160322L9.17034 7.63126C9.27722 7.73814 9.33066 7.86106 9.33066 8C9.33066 8.13895 9.27722 8.26186 9.17034 8.36874L1.6994 15.8397C1.59252 15.9466 1.4696 16 1.33066 16C1.19172 16 1.0688 15.9466 0.961923 15.8397L0.16032 15.0381C0.0534396 14.9312 0 14.8083 0 14.6693C0 14.5304 0.0534396 14.4075 0.16032 14.3006L6.46092 8L0.16032 1.6994C0.0534396 1.59252 0 1.46961 0 1.33066C0 1.19172 0.0534396 1.06881 0.16032 0.961925L0.961923 0.160322C1.0688 0.053442 1.19172 0 1.33066 0Z" fill="white"/>
</svg>
