<svg viewBox="0 0 14 12" fill="none" xmlns="http://www.w3.org/2000/svg">
<path d="M5.11539 11.4676C4.99572 11.4673 4.87741 11.4423 4.7678 11.3942C4.6582 11.3462 4.55965 11.2761 4.47827 11.1884L0.236577 6.6761C0.0780167 6.50713 -0.00692349 6.28208 0.000441987 6.05048C0.00780746 5.81888 0.106875 5.59969 0.275852 5.44113C0.444828 5.28257 0.669872 5.19762 0.901475 5.20499C1.13308 5.21236 1.35227 5.31142 1.51083 5.4804L5.10667 9.31189L12.4467 1.28235C12.5212 1.18959 12.6139 1.11304 12.719 1.0574C12.8242 1.00176 12.9396 0.968203 13.0582 0.958791C13.1768 0.949378 13.296 0.96431 13.4086 1.00267C13.5212 1.04102 13.6248 1.102 13.713 1.18184C13.8012 1.26169 13.8721 1.35872 13.9215 1.46698C13.9708 1.57523 13.9974 1.69243 13.9998 1.81137C14.0022 1.93031 13.9802 2.04848 13.9353 2.15862C13.8903 2.26877 13.8233 2.36856 13.7384 2.45187L5.76125 11.1796C5.68064 11.269 5.58243 11.3407 5.47279 11.3902C5.36315 11.4398 5.24444 11.4661 5.12412 11.4676H5.11539Z" fill="white"/>
</svg>
