<svg width="16" height="10" viewBox="0 0 16 10" fill="none" xmlns="http://www.w3.org/2000/svg">
<path d="M16 2.00058C16 2.13953 15.9466 2.26244 15.8397 2.36932L8.36874 9.84026C8.26186 9.94714 8.13894 10.0006 8 10.0006C7.86105 10.0006 7.73814 9.94714 7.63126 9.84026L0.160321 2.36932C0.0534406 2.26244 0 2.13953 0 2.00058C0 1.86164 0.0534406 1.73872 0.160321 1.63184L0.961924 0.830242C1.0688 0.723361 1.19172 0.669922 1.33066 0.669922C1.46961 0.669922 1.59252 0.723361 1.6994 0.830242L8 7.13084L14.3006 0.830242C14.4075 0.723361 14.5304 0.669922 14.6693 0.669922C14.8083 0.669922 14.9312 0.723361 15.0381 0.830242L15.8397 1.63184C15.9466 1.73872 16 1.86164 16 2.00058Z" fill="white"/>
</svg>
