<svg viewBox="0 0 20 12" fill="none" xmlns="http://www.w3.org/2000/svg">
<path d="M10 0.399902C3.439 0.399902 0 5.2319 0 5.9999C0 6.7659 3.439 11.5999 10 11.5999C16.56 11.5999 20 6.7659 20 5.9999C20 5.2319 16.56 0.399902 10 0.399902ZM10 10.3069C7.545 10.3069 5.555 8.3789 5.555 5.9999C5.555 3.6209 7.545 1.6909 10 1.6909C12.455 1.6909 14.444 3.6209 14.444 5.9999C14.444 8.3789 12.455 10.3069 10 10.3069ZM10 5.9999C9.593 5.5529 10.663 3.8459 10 3.8459C8.772 3.8459 7.777 4.8109 7.777 5.9999C7.777 7.1889 8.772 8.1539 10 8.1539C11.227 8.1539 12.223 7.1889 12.223 5.9999C12.223 5.4529 10.346 6.3789 10 5.9999Z" fill="black"/>
</svg>
