<svg viewBox="0 0 140 46" fill="none" xmlns="http://www.w3.org/2000/svg">
<path fill-rule="evenodd" clip-rule="evenodd" d="M10.0395 2.03159C7.27443 3.48176 4.45994 4.98194 2.13921 7.43223C-0.0333785 9.68249 -0.625903 13.5329 0.707278 16.4333C2.04046 19.2336 3.91679 21.7339 6.13876 24.1342C4.60807 16.2833 6.23751 8.33233 10.0395 2.03159Z" fill="#37A58C"/>
<path fill-rule="evenodd" clip-rule="evenodd" d="M7.76831 25.5844C10.484 27.3346 13.1504 28.9848 16.2612 29.7349C19.6682 30.535 22.8777 29.0848 24.9022 26.3345C26.581 23.6842 27.6673 20.8838 28.6054 17.9335C22.6802 22.9841 15.7674 25.6344 7.76831 25.5844Z" fill="#DD0060"/>
<path fill-rule="evenodd" clip-rule="evenodd" d="M28.0623 4.38187C26.7785 1.88157 24.1615 0.281381 21.4951 0.0313509C18.2856 -0.118667 15.2736 0.28138 12.3604 0.981463C19.125 3.18172 25.8403 8.8824 29.2967 15.4332C29.4448 11.6327 29.6423 7.58225 28.0623 4.38187Z" fill="#4E4E4E"/>
<path fill-rule="evenodd" clip-rule="evenodd" d="M87.1666 15.4332V27.6346H83.7102V15.4332H75.7605C75.7605 15.4332 75.7605 44.5866 75.7605 44.9867C76.1555 44.9867 83.7102 44.9867 83.7102 44.9867V32.7352H87.1172V44.9867C87.1172 44.9867 94.6719 44.9867 95.0669 44.9867C95.0669 44.5866 95.0669 15.4332 95.0669 15.4332H87.1666Z" fill="black"/>
<path fill-rule="evenodd" clip-rule="evenodd" d="M98.5232 20.2838C98.5232 17.6334 100.251 15.4332 102.77 15.4332H117.484V44.9867H109.633V32.7352H106.424V44.9867H98.5232V20.2838ZM106.424 27.6346H109.633V20.1337H107.806C106.819 20.1337 106.424 20.5338 106.424 21.6339V27.6346Z" fill="black"/>
<path fill-rule="evenodd" clip-rule="evenodd" d="M55.5157 25.2843C55.5157 27.8847 53.3925 29.8349 51.5656 30.0349C53.4419 30.2349 55.5157 32.2352 55.5157 34.8855V45.0367H47.566V34.2854C47.566 33.1853 47.1216 32.7352 46.1835 32.7352H44.2084V44.9867H36.3574V15.4332H51.4174C53.4913 15.4332 55.4664 17.5834 55.5157 20.2838V25.2843ZM46.5785 27.6346C47.2204 27.5346 47.6154 27.0346 47.566 26.1344L47.6154 21.6339C47.6154 20.6338 47.2204 20.1337 46.2328 20.1337H44.2578V27.6346H46.5785Z" fill="black"/>
<path fill-rule="evenodd" clip-rule="evenodd" d="M66.9219 21.1339H72.3534V15.4332H58.9722C58.9722 15.4332 58.9722 44.5866 58.9722 44.9867C59.3672 44.9867 72.3534 44.9867 72.3534 44.9867V39.286H66.9219V32.7352H71.5139V27.6346H66.9219V21.1339Z" fill="black"/>
<path fill-rule="evenodd" clip-rule="evenodd" d="M139.457 42.0363C139.901 40.9362 140 39.8361 140 38.4859C140 38.1359 140 15.4832 140 15.4832H132.248C132.248 15.4832 132.248 38.0858 132.248 38.2859C132.248 38.9359 131.853 39.9361 130.52 39.9361C130.47 39.9361 130.47 39.9361 130.47 39.9361C129.137 39.9361 128.742 38.8859 128.742 38.2859C128.742 38.0858 128.742 15.4832 128.742 15.4832H120.99C120.99 15.4832 120.99 38.1859 120.99 38.4859C120.99 39.9361 121.089 40.9862 121.533 42.0363C122.125 43.3865 123.459 44.4866 124.841 44.8366C125.384 44.9867 126.125 44.9867 126.964 44.9867H134.075C134.914 44.9867 135.605 44.9367 136.198 44.8366C137.58 44.4366 138.864 43.3365 139.457 42.0363Z" fill="black"/>
</svg>
