<svg width="26" height="28" viewBox="0 0 26 28" fill="none" xmlns="http://www.w3.org/2000/svg">
    <path d="M12.9994 18.664C10.4221 18.664 8.33275 16.5747 8.33275 13.9973C8.33275 11.4201 10.4221 9.33073 12.9994 9.33073C15.5768 9.33073 17.6661 11.4201 17.6661 13.9973C17.6661 16.5747 15.5768 18.664 12.9994 18.664ZM22.9048 15.2988C22.9608 14.8708 22.9981 14.4387 22.9981 13.9973C22.9981 13.5561 22.9608 13.124 22.9048 12.696L25.7221 10.4907C25.9728 10.2881 26.0461 9.92805 25.8794 9.64005L23.2128 5.0214C23.0474 4.7334 22.6981 4.61605 22.3968 4.73209L19.0781 6.06941C18.3901 5.54142 17.6368 5.09472 16.8248 4.7587L16.3248 1.22542C16.2741 0.908036 15.9981 0.664062 15.6661 0.664062H10.3327C9.99941 0.664062 9.72476 0.908036 9.67409 1.22542L9.17409 4.7574C8.36075 5.09472 7.6074 5.54142 6.91941 6.06941L3.60208 4.73209C3.30076 4.61605 2.9514 4.7334 2.78608 5.0214L0.119413 9.64005C-0.0472534 9.92805 0.0260667 10.2881 0.27676 10.4907L3.09276 12.696C3.03676 13.1227 2.99941 13.5561 2.99941 13.9973C2.99941 14.4387 3.03676 14.8721 3.09276 15.2988L0.27676 17.5028C0.0260667 17.7067 -0.0472534 18.0667 0.119413 18.3548L2.78608 22.9733C2.9514 23.2613 3.30076 23.3788 3.60208 23.2627L6.92076 21.9253C7.60875 22.4533 8.36208 22.9 9.17409 23.2361L9.67409 26.7693C9.72476 27.0868 9.99941 27.3307 10.3327 27.3307H15.6661C15.9981 27.3307 16.2741 27.0868 16.3248 26.7693L16.8248 23.2361C17.6354 22.8988 18.3888 22.4533 19.0768 21.9241L22.3968 23.2627C22.6981 23.3788 23.0474 23.2613 23.2128 22.9733L25.8794 18.3548C26.0461 18.0667 25.9728 17.7067 25.7221 17.5028L22.9048 15.2988Z" fill="black"/>
</svg>
