<svg width="48" height="48" viewBox="0 0 48 48" fill="none" xmlns="http://www.w3.org/2000/svg">
<circle cx="24" cy="24" r="24" fill="#37A58C"/>
<g clip-path="url(#clip0)">
<path d="M35.2933 32.6622C35.2933 33.9646 34.9257 35.0818 34.1904 36.0138C33.4551 36.9457 32.5698 37.4117 31.5345 37.4117H16.4639C15.4286 37.4117 14.5433 36.9457 13.808 36.0138C13.0727 35.0818 12.7051 33.9646 12.7051 32.6622C12.7051 31.6466 12.7551 30.6877 12.8551 29.7856C12.9551 28.8835 13.1404 27.9754 13.411 27.0613C13.6815 26.1473 14.0257 25.3646 14.4433 24.7134C14.861 24.0622 15.4139 23.5305 16.1021 23.1183C16.7904 22.7061 17.5815 22.5 18.4757 22.5C20.0168 24.0294 21.858 24.7941 23.9992 24.7941C26.1404 24.7941 27.9815 24.0294 29.5227 22.5C30.4168 22.5 31.208 22.7061 31.8963 23.1183C32.5845 23.5305 33.1374 24.0622 33.5551 24.7134C33.9727 25.3646 34.3168 26.1473 34.5874 27.0613C34.858 27.9754 35.0433 28.8835 35.1433 29.7856C35.2433 30.6877 35.2933 31.6466 35.2933 32.6622ZM30.7757 16.7647C30.7757 18.6645 30.1139 20.2865 28.7904 21.6307C27.4668 22.9749 25.8698 23.647 23.9992 23.647C22.1286 23.647 20.5315 22.9749 19.208 21.6307C17.8845 20.2865 17.2227 18.6645 17.2227 16.7647C17.2227 14.8649 17.8845 13.2428 19.208 11.8986C20.5315 10.5544 22.1286 9.88232 23.9992 9.88232C25.8698 9.88232 27.4668 10.5544 28.7904 11.8986C30.1139 13.2428 30.7757 14.8649 30.7757 16.7647Z" fill="white"/>
</g>
<defs>
<clipPath id="clip0">
<rect width="22.5882" height="27.5294" fill="white" transform="translate(12.7051 9.88232)"/>
</clipPath>
</defs>
</svg>
