<svg viewBox="0 0 24 29" fill="none" xmlns="http://www.w3.org/2000/svg">
<path d="M23.2943 23.6622C23.2943 24.9646 22.9266 26.0818 22.1913 27.0138C21.4561 27.9458 20.5708 28.4118 19.5355 28.4118H4.46488C3.42958 28.4118 2.54429 27.9458 1.809 27.0138C1.0737 26.0818 0.706055 24.9646 0.706055 23.6622C0.706055 22.6466 0.756055 21.6877 0.856055 20.7856C0.956055 19.8835 1.14135 18.9754 1.41194 18.0614C1.68252 17.1473 2.02664 16.3647 2.44429 15.7135C2.86194 15.0623 3.41488 14.5306 4.10311 14.1184C4.79135 13.7061 5.58253 13.5 6.47664 13.5C8.01782 15.0294 9.859 15.7941 12.0002 15.7941C14.1413 15.7941 15.9825 15.0294 17.5237 13.5C18.4178 13.5 19.209 13.7061 19.8972 14.1184C20.5855 14.5306 21.1384 15.0623 21.5561 15.7135C21.9737 16.3647 22.3178 17.1473 22.5884 18.0614C22.859 18.9754 23.0443 19.8835 23.1443 20.7856C23.2443 21.6877 23.2943 22.6466 23.2943 23.6622ZM18.7766 7.76472C18.7766 9.66454 18.1149 11.2865 16.7913 12.6308C15.4678 13.975 13.8708 14.6471 12.0002 14.6471C10.1296 14.6471 8.53253 13.975 7.209 12.6308C5.88547 11.2865 5.2237 9.66454 5.2237 7.76472C5.2237 5.86491 5.88547 4.24289 7.209 2.89868C8.53253 1.55447 10.1296 0.88237 12.0002 0.88237C13.8708 0.88237 15.4678 1.55447 16.7913 2.89868C18.1149 4.24289 18.7766 5.86491 18.7766 7.76472Z" fill="white"/>
</svg>
