<svg width="26" height="48" viewBox="0 0 26 48" fill="none" xmlns="http://www.w3.org/2000/svg">
<path d="M7.24003 27.118C7.06003 27.118 3.10003 27.118 1.30004 27.118C0.340039 27.118 0.0400391 26.758 0.0400391 25.858C0.0400391 23.458 0.0400391 20.998 0.0400391 18.598C0.0400391 17.638 0.400039 17.338 1.30004 17.338H7.24003C7.24003 17.158 7.24003 13.678 7.24003 12.058C7.24003 9.65798 7.66003 7.37798 8.86002 5.27798C10.12 3.11798 11.92 1.67798 14.2 0.837983C15.7 0.297983 17.2 0.0579834 18.82 0.0579834H24.7C25.54 0.0579834 25.9 0.417983 25.9 1.25798V8.09798C25.9 8.93798 25.54 9.29798 24.7 9.29798C23.08 9.29798 21.46 9.29798 19.84 9.35798C18.22 9.35798 17.38 10.138 17.38 11.818C17.32 13.618 17.38 15.358 17.38 17.218H24.34C25.3 17.218 25.66 17.578 25.66 18.538V25.798C25.66 26.758 25.36 27.058 24.34 27.058C22.18 27.058 17.56 27.058 17.38 27.058V46.618C17.38 47.638 17.08 47.998 16 47.998C13.48 47.998 11.02 47.998 8.50002 47.998C7.60003 47.998 7.24003 47.638 7.24003 46.738C7.24003 40.438 7.24003 27.298 7.24003 27.118Z" fill="#37A58C"/>
</svg>
