<svg width="60" height="60" viewBox="0 0 60 60" fill="none" xmlns="http://www.w3.org/2000/svg">
<g clip-path="url(#clip0)">
<path d="M59.9413 17.6402C59.8007 14.4521 59.2852 12.2604 58.5467 10.3612C57.7848 8.34529 56.6127 6.54043 55.0771 5.04005C53.5767 3.51631 51.7599 2.3323 49.7673 1.58234C47.8572 0.843823 45.6769 0.328281 42.4889 0.18772C39.277 0.0352547 38.2574 0 30.1113 0C21.9652 0 20.9455 0.0352547 17.7456 0.175816C14.5576 0.316377 12.3658 0.832377 10.4671 1.57044C8.45075 2.3323 6.64589 3.50441 5.14551 5.04005C3.62178 6.54043 2.43823 8.35719 1.68781 10.3498C0.949291 12.2604 0.433749 14.4402 0.293188 17.6283C0.140723 20.8401 0.105469 21.8597 0.105469 30.0059C0.105469 38.152 0.140723 39.1716 0.281284 42.3716C0.421845 45.5596 0.937844 47.7513 1.67636 49.6505C2.43823 51.6664 3.62178 53.4713 5.14551 54.9717C6.64589 56.4954 8.46265 57.6794 10.4552 58.4294C12.3658 59.1679 14.5457 59.6834 17.7342 59.824C20.9336 59.965 21.9537 59.9998 30.0998 59.9998C38.2459 59.9998 39.2656 59.965 42.4655 59.824C45.6535 59.6834 47.8453 59.1679 49.744 58.4294C53.7763 56.8704 56.9643 53.6824 58.5233 49.6505C59.2614 47.7399 59.7774 45.5596 59.9179 42.3716C60.0585 39.1716 60.0938 38.152 60.0938 30.0059C60.0938 21.8597 60.0818 20.8401 59.9413 17.6402ZM54.5382 42.1371C54.4091 45.0674 53.9169 46.6497 53.5066 47.7046C52.4984 50.3185 50.4239 52.393 47.81 53.4012C46.7551 53.8115 45.1614 54.3037 42.2425 54.4323C39.0779 54.5733 38.1287 54.6081 30.1232 54.6081C22.1176 54.6081 21.1566 54.5733 18.0034 54.4323C15.0731 54.3037 13.4908 53.8115 12.4359 53.4012C11.1351 52.9205 9.95113 52.1586 8.9901 51.1623C7.99381 50.1894 7.23194 49.0173 6.7512 47.7165C6.34096 46.6616 5.84877 45.0674 5.72011 42.149C5.57909 38.9844 5.5443 38.0348 5.5443 30.0292C5.5443 22.0237 5.57909 21.0626 5.72011 17.9098C5.84877 14.9796 6.34096 13.3972 6.7512 12.3423C7.23194 11.0411 7.99381 9.85758 9.002 8.89609C9.97448 7.8998 11.1466 7.13793 12.4478 6.65764C13.5027 6.24741 15.0969 5.75521 18.0153 5.6261C21.18 5.48554 22.1295 5.45028 30.1346 5.45028C38.1521 5.45028 39.1012 5.48554 42.2544 5.6261C45.1847 5.75521 46.767 6.24741 47.8219 6.65764C49.1227 7.13793 50.3067 7.8998 51.2677 8.89609C52.264 9.86902 53.0259 11.0411 53.5066 12.3423C53.9169 13.3972 54.4091 14.991 54.5382 17.9098C54.6787 21.0745 54.714 22.0237 54.714 30.0292C54.714 38.0348 54.6787 38.9725 54.5382 42.1371Z" fill="#37A58C"/>
<path d="M30.1114 14.5924C21.6022 14.5924 14.6982 21.4959 14.6982 30.0055C14.6982 38.5152 21.6022 45.4187 30.1114 45.4187C38.6211 45.4187 45.5246 38.5152 45.5246 30.0055C45.5246 21.4959 38.6211 14.5924 30.1114 14.5924ZM30.1114 40.0037C24.5911 40.0037 20.1133 35.5263 20.1133 30.0055C20.1133 24.4847 24.5911 20.0074 30.1114 20.0074C35.6322 20.0074 40.1095 24.4847 40.1095 30.0055C40.1095 35.5263 35.6322 40.0037 30.1114 40.0037Z" fill="#37A58C"/>
<path d="M49.7327 13.9844C49.7327 15.9715 48.1215 17.5827 46.1339 17.5827C44.1468 17.5827 42.5356 15.9715 42.5356 13.9844C42.5356 11.9968 44.1468 10.3861 46.1339 10.3861C48.1215 10.3861 49.7327 11.9968 49.7327 13.9844Z" fill="#37A58C"/>
</g>
<defs>
<clipPath id="clip0">
<rect width="60" height="60" fill="white"/>
</clipPath>
</defs>
</svg>
