<svg width="60" height="60" viewBox="0 0 60 60" fill="none" xmlns="http://www.w3.org/2000/svg">
<g clip-path="url(#clip0)">
<path d="M11.8024 32.2025C10.2699 35.215 12.0099 36.655 15.9799 39.115C19.3549 41.2 24.0174 41.9625 27.0124 42.2675C25.7849 43.4475 31.4099 38.0375 15.2099 53.62C11.7749 56.9125 17.3049 62.195 20.7374 58.9725L30.0299 50.01C33.5874 53.4325 36.9974 56.7125 39.3224 58.985C42.7574 62.22 48.2849 56.9825 44.8874 53.6325C44.6324 53.39 32.2949 41.555 33.0474 42.28C36.0799 41.975 40.6724 41.1675 44.0074 39.1275L44.0049 39.125C47.9749 36.6525 49.7149 35.215 48.2049 32.2025C47.2924 30.4925 44.8324 29.0625 41.5574 31.535C41.5574 31.535 37.1349 34.9225 30.0024 34.9225C22.8674 34.9225 18.4474 31.535 18.4474 31.535C15.1749 29.05 12.7049 30.4925 11.8024 32.2025Z" fill="#37A58C"/>
<path d="M29.9977 30.355C38.6927 30.355 45.7927 23.56 45.7927 15.195C45.7927 6.795 38.6927 0 29.9977 0C21.3002 0 14.2002 6.795 14.2002 15.195C14.2002 23.56 21.3002 30.355 29.9977 30.355ZM29.9977 7.6975C34.2702 7.6975 37.7552 11.05 37.7552 15.195C37.7552 19.305 34.2702 22.6575 29.9977 22.6575C25.7252 22.6575 22.2402 19.305 22.2402 15.195C22.2377 11.0475 25.7227 7.6975 29.9977 7.6975Z" fill="#37A58C"/>
</g>
<defs>
<clipPath id="clip0">
<rect width="60" height="60" fill="white"/>
</clipPath>
</defs>
</svg>
