<svg width="49" height="40" viewBox="0 0 49 40" fill="none" xmlns="http://www.w3.org/2000/svg">
<path d="M48.9399 5.12C47.1399 5.9 45.2799 6.44 43.2999 6.68C45.3399 5.48 46.8999 3.56 47.6199 1.22C45.6999 2.36 43.5999 3.14 41.3799 3.62C39.5799 1.7 36.9999 0.5 34.1799 0.5C28.7199 0.5 24.3399 4.94 24.3399 10.34C24.3399 11.12 24.3999 11.84 24.5799 12.56C16.4199 12.2 9.21994 8.24 4.35994 2.3C0.879942 8.54 4.77994 13.7 7.35994 15.44C5.79994 15.44 4.23994 14.96 2.91994 14.24C2.91994 19.1 6.33994 23.12 10.7799 24.02C9.81994 24.32 7.65994 24.5 6.33994 24.2C7.59994 28.1 11.2599 30.98 15.5199 31.04C12.1599 33.68 7.23994 35.78 0.939941 35.12C5.31994 37.94 10.4799 39.56 16.0599 39.56C34.1799 39.56 44.0199 24.56 44.0199 11.6C44.0199 11.18 44.0199 10.76 43.9599 10.34C45.9999 8.84 47.6799 7.1 48.9399 5.12Z" fill="#37A58C"/>
</svg>
