<svg width="60" height="60" viewBox="0 0 60 60" fill="none" xmlns="http://www.w3.org/2000/svg">
<path d="M34.7999 6H25.1999C15.9359 6 8.3999 13.536 8.3999 22.8V30C8.3999 36.51 12.1499 42.408 17.9999 45.186V53.208C17.9999 53.904 18.8699 54.264 19.3619 53.772L26.3339 46.806H34.7999C44.0639 46.806 51.5999 39.27 51.5999 30V22.8C51.5999 13.536 44.0639 6 34.7999 6ZM41.0879 37.4886L38.6579 39.8646C36.1019 42.3666 29.4299 39.5106 23.5499 33.5046C17.6699 27.4926 15.0899 20.7606 17.5199 18.2586L19.9499 15.8826C20.8439 15.0066 22.3619 15.0246 23.3639 15.9186L26.8679 19.5006C28.1159 20.7786 27.5879 22.9206 25.9379 23.4126C24.7979 23.7786 24.0239 25.0326 24.3899 26.1726C24.9959 28.8366 28.3739 32.1666 30.8939 32.8266C32.0279 33.0906 33.2999 32.4726 33.6959 31.3386C34.2179 29.7006 36.3719 29.2146 37.6259 30.4986L41.1239 34.0746C41.9999 34.968 41.9879 36.4866 41.0879 37.4886ZM32.1839 17.4C31.9439 17.4 31.7039 17.412 31.4699 17.442C31.0319 17.49 30.6359 17.172 30.5879 16.734C30.5399 16.296 30.8579 15.9 31.2959 15.852C31.5899 15.816 31.8899 15.804 32.1839 15.804C36.5939 15.804 40.1819 19.392 40.1819 23.802C40.1819 24.096 40.1699 24.396 40.1339 24.69C40.0859 25.122 39.6839 25.446 39.2519 25.398C38.8199 25.35 38.4959 24.948 38.5439 24.516C38.5679 24.282 38.5859 24.042 38.5859 23.802C38.5859 20.274 35.7119 17.4 32.1839 17.4ZM36.9839 23.802C36.9839 24.24 36.6179 24.6 36.1799 24.6C35.7479 24.6 35.3819 24.24 35.3819 23.802C35.3819 22.038 33.9479 20.604 32.1839 20.604C31.7399 20.604 31.3799 20.244 31.3799 19.8C31.3799 19.362 31.7399 19.002 32.1839 19.002C34.8299 19.002 36.9839 21.156 36.9839 23.802ZM43.0859 26.388C42.9839 26.82 42.5219 27.09 42.0959 26.976C41.6819 26.862 41.4299 26.43 41.5259 26.016C41.6999 25.296 41.7839 24.552 41.7839 23.802C41.7839 18.51 37.4759 14.202 32.1839 14.202C31.9379 14.202 31.6859 14.208 31.4399 14.232C31.0019 14.262 30.6179 13.932 30.5819 13.494C30.5519 13.05 30.8819 12.666 31.3199 12.636C31.6079 12.612 31.8959 12.6 32.1839 12.6C38.3579 12.6 43.3859 17.628 43.3859 23.802C43.3859 24.672 43.2839 25.542 43.0859 26.388Z" fill="#37A58C"/>
</svg>
