<svg width="50" height="28" viewBox="0 0 50 28" fill="none" xmlns="http://www.w3.org/2000/svg">
<path fill-rule="evenodd" clip-rule="evenodd" d="M24.46 27.5608H27.34C27.34 27.5608 28.18 27.4408 28.66 26.9608C29.08 26.5408 29.08 25.7008 29.08 25.7008C29.08 25.7008 29.02 21.8608 30.82 21.2608C32.56 20.7208 34.84 24.9808 37.24 26.6008C39.04 27.8608 40.42 27.5608 40.42 27.5608L46.84 27.5008C46.84 27.5008 50.2 27.3208 48.58 24.6808C48.46 24.4408 47.68 22.7008 43.84 19.1608C39.82 15.4408 40.36 16.0408 45.22 9.56078C48.16 5.66078 49.36 3.26077 49 2.18077C48.64 1.22077 46.48 1.46077 46.48 1.46077L39.28 1.52077C39.28 1.52077 38.74 1.46077 38.32 1.70077C37.84 2.00077 37.6 2.54077 37.6 2.54077C37.6 2.54077 36.46 5.60078 34.96 8.18078C31.72 13.6408 30.46 13.9408 29.92 13.5808C28.72 12.8008 29.02 10.4008 29.02 8.72078C29.02 3.44077 29.8 1.22077 27.46 0.68077C26.68 0.50077 26.08 0.38077 24.1 0.32077C21.52 0.32077 19.36 0.32077 18.1 0.920771C17.26 1.34077 16.66 2.24077 17.02 2.24077C17.5 2.30077 18.58 2.54077 19.12 3.32077C19.84 4.34078 19.84 6.56078 19.84 6.56078C19.84 6.56078 20.26 12.8008 18.82 13.5808C17.86 14.1208 16.54 13.0408 13.66 8.06078C12.22 5.54078 11.08 2.72077 11.08 2.72077C11.08 2.72077 10.84 2.18077 10.48 1.94077C10.18 1.70077 9.57996 1.52077 8.91996 1.52077L2.49996 1.58077C2.49996 1.58077 1.47996 1.58077 1.11996 2.06077C0.759961 2.48077 1.11996 3.26077 1.11996 3.26077C1.11996 3.26077 6.51996 15.8008 12.58 22.1008C18.16 27.9808 24.46 27.5608 24.46 27.5608Z" fill="#37A58C"/>
</svg>
