<svg width="48" height="48" viewBox="0 0 48 48" fill="none" xmlns="http://www.w3.org/2000/svg">
<path d="M24 0C10.746 0 0 10.746 0 24C0 29.256 1.692 34.122 4.566 38.076L1.266 46.752L10.788 44.04C14.574 46.542 19.116 48 24 48C37.254 48 48 37.254 48 24C48 10.746 37.254 0 24 0ZM36.756 33.942L34.2 36.498C31.512 39.186 24.384 36.228 18.066 29.91C11.742 23.586 8.916 16.458 11.472 13.77L14.028 11.214C14.97 10.272 16.584 10.272 17.658 11.214L21.426 14.982C22.77 16.326 22.23 18.612 20.484 19.146C19.272 19.554 18.468 20.898 18.87 22.11C19.542 24.93 23.172 28.428 25.866 29.1C27.072 29.37 28.422 28.698 28.824 27.486C29.358 25.74 31.65 25.2 32.994 26.544L36.756 30.312C37.698 31.254 37.698 32.868 36.756 33.942Z" fill="#37A58C"/>
</svg>
